<svg viewBox="0 0 16 16" display="block" enable-background="new 0 0 24 24" class="sc-iumJyn bmfXnh"><g><path fill="none" stroke="currentColor" stroke-linecap="round" stroke-linejoin="round" d="M15.5 15.446L.553 15.5.5.5"></path><path fill="none" stroke="currentColor" stroke-linecap="round" stroke-linejoin="round" d="M5.493 13.494l.007-2a1 1 0 00-.994-1h-1a1 1 0 00-1 .994l-.007 2M10.493 13.494l.007-6a1 1 0 00-.994-1h-1a1 1 0 00-1 .994l-.007 6M15.493 13.494l.007-10a1 1 0 00-.994-1h-1a1 1 0 00-1 .994l-.007 10"></path></g></svg>