<svg width="12" height="14" viewBox="0 0 12 14" fill="none" xmlns="http://www.w3.org/2000/svg"><path fill-rule="evenodd" clip-rule="evenodd" d="M2.27166 2.79639C3.25375 1.85067 4.59428 1.3125 6 1.3125C7.40572 1.3125 8.74625 1.85067 9.72831 2.79639C10.709 3.74073 11.25 5.01055 11.25 6.32292V8.07618C11.0125 7.90882 10.7312 7.81111 10.425 7.81111H9.82505C8.9312 7.81111 8.25 8.64345 8.25 9.61022V11.6995C8.25 12.6663 8.9312 13.4986 9.82505 13.4986H10.425C11.3188 13.4986 12 12.6663 12 11.6995V9.61022C12 9.50706 11.9922 9.40544 11.9773 9.30619C11.992 9.26268 12 9.21568 12 9.16667V6.32292C12 4.76211 11.3558 3.27643 10.2266 2.18912C9.09893 1.1032 7.57797 0.5 6 0.5C4.42203 0.5 2.90107 1.1032 1.77339 2.18912C0.64426 3.27643 0 4.76211 0 6.32292V9.16667C0 9.21568 0.00801362 9.26267 0.022699 9.30618C0.00775611 9.40543 0 9.50706 0 9.61022V11.6995C0 12.6663 0.681203 13.4986 1.575 13.4986H2.175C3.0688 13.4986 3.75 12.6663 3.75 11.6995V9.61022C3.75 8.64345 3.0688 7.81111 2.175 7.81111H1.575C1.26876 7.81111 0.98748 7.90882 0.75 8.07618V6.32292C0.75 5.01055 1.29101 3.74073 2.27166 2.79639ZM1.575 8.62361C1.14331 8.62361 0.75 9.03848 0.75 9.61022V11.6995C0.75 12.2712 1.14331 12.6861 1.575 12.6861H2.175C2.60669 12.6861 3 12.2712 3 11.6995V9.61022C3 9.03848 2.60669 8.62361 2.175 8.62361H1.575ZM9.82505 8.62361C9.39332 8.62361 9 9.03848 9 9.61022V11.6995C9 12.2712 9.39332 12.6861 9.82505 12.6861H10.425C10.8567 12.6861 11.25 12.2712 11.25 11.6995V9.61022C11.25 9.03848 10.8567 8.62361 10.425 8.62361H9.82505Z" fill="black"></path></svg>