<svg width="13" height="13" viewBox="0 0 13 13" fill="none" xmlns="http://www.w3.org/2000/svg"><path fill-rule="evenodd" clip-rule="evenodd" d="M2.84375 0.49881L2.55649 0.617798L0.118988 3.0553L0 3.17429V3.34256V4.15506C0 4.79604 0.323039 5.34073 0.8125 5.70422V11.872H0V12.6845H12.1875V11.872H11.375V5.70422C11.8645 5.34073 12.1875 4.79604 12.1875 4.15506V3.34256V3.19548L12.0933 3.08248L10.0621 0.644985L9.75 0.49881H2.84375ZM1.625 11.872V6.09574C1.84173 6.15488 2.06972 6.18631 2.30208 6.18631C3.06036 6.18631 3.77204 5.85157 4.19792 5.31179C4.62379 5.85157 5.33548 6.18631 6.09375 6.18631C6.85202 6.18631 7.56371 5.85157 7.98958 5.31179C8.41546 5.85157 9.12714 6.18631 9.88542 6.18631C10.1178 6.18631 10.3458 6.15488 10.5625 6.09574V11.872H8.125V8.21756L7.71875 7.81131H4.46875L4.0625 8.21756V11.872H1.625ZM4.875 11.872H7.3125V8.62381H4.875V11.872ZM10.9139 2.93631L9.55972 1.31131H3.01202L1.38702 2.93631H4.19792H7.98958H10.9139ZM0.8125 3.74881V4.15506C0.8125 4.77166 1.4184 5.37381 2.30208 5.37381C3.18577 5.37381 3.79167 4.77166 3.79167 4.15506H4.60417C4.60417 4.77166 5.21007 5.37381 6.09375 5.37381C6.97743 5.37381 7.58333 4.77166 7.58333 4.15506H8.39583C8.39583 4.77166 9.00173 5.37381 9.88542 5.37381C10.7691 5.37381 11.375 4.77166 11.375 4.15506V3.74881H7.98958H4.19792H0.8125Z" fill="black"></path></svg>