<svg viewBox="0 0 12 17" display="block" enable-background="new 0 0 24 24" class="sc-iumJyn bmfXnh"><path d="M2.10899 16.0742H9.61366C10.7788 16.0742 11.3613 15.4916 11.3613 14.196V8.40465C11.3613 7.23944 10.8901 6.64813 9.93921 6.54378V4.59596C9.93921 1.61335 8.02877 0.0742188 5.86133 0.0742188C3.69388 0.0742188 1.78345 1.61335 1.78345 4.59596V6.54378C0.832512 6.64813 0.361328 7.23944 0.361328 8.40465V14.196C0.361328 15.4916 0.935316 16.0742 2.10899 16.0742ZM2.90572 4.46552C2.90572 2.35248 4.22504 1.15248 5.86133 1.15248C7.48905 1.15248 8.81694 2.35248 8.81694 4.46552V6.52639H2.90572V4.46552ZM2.14326 15.0133C1.68921 15.0133 1.47504 14.822 1.47504 14.2655V8.32639C1.47504 7.76987 1.68921 7.58726 2.14326 7.58726H9.58796C10.0334 7.58726 10.2391 7.76987 10.2391 8.32639V14.2655C10.2391 14.822 10.0334 15.0133 9.58796 15.0133H2.14326Z"></path></svg>