<svg width="43" height="42" viewBox="0 0 43 42" fill="none" xmlns="http://www.w3.org/2000/svg" className="h-12 w-12"><circle cx="21.9684" cy="21" r="21" fill="black"></circle><path d="M28.6396 22.2876C28.4321 22.2876 28.2153 22.2216 28.0078 22.1745C27.5878 22.0819 27.175 21.959 26.7727 21.8068C26.3353 21.6477 25.8545 21.6559 25.4229 21.83C24.9912 22.004 24.6391 22.3316 24.4345 22.7496L24.227 23.1739C23.3087 22.6631 22.4648 22.0286 21.7191 21.2882C20.9787 20.5424 20.3442 19.6986 19.8334 18.7802L20.2294 18.5163C20.6474 18.3116 20.975 17.9595 21.149 17.5279C21.3231 17.0962 21.3313 16.6154 21.1722 16.178C21.0225 15.7749 20.8997 15.3622 20.8045 14.9429C20.7574 14.7354 20.7197 14.5186 20.6914 14.3017C20.5769 13.6376 20.229 13.0362 19.7104 12.6058C19.1919 12.1754 18.5367 11.9443 17.8628 11.954H15.0343C14.628 11.9502 14.2256 12.034 13.8545 12.1997C13.4835 12.3654 13.1525 12.609 12.8841 12.9141C12.6157 13.2192 12.4161 13.5786 12.2991 13.9677C12.182 14.3568 12.1502 14.7666 12.2058 15.1692C12.708 19.1191 14.512 22.7891 17.3326 25.5995C20.1533 28.4099 23.8298 30.2005 27.7816 30.6884H28.1398C28.8351 30.6894 29.5064 30.4343 30.0255 29.9718C30.3238 29.705 30.5621 29.378 30.7246 29.0123C30.8871 28.6466 30.9702 28.2506 30.9684 27.8504V25.0219C30.9568 24.367 30.7183 23.7364 30.2936 23.2377C29.8689 22.739 29.2843 22.4033 28.6396 22.2876ZM29.111 27.9447C29.1108 28.0786 29.0821 28.2109 29.0269 28.3328C28.9716 28.4547 28.891 28.5635 28.7904 28.6518C28.6851 28.7428 28.5619 28.8107 28.4287 28.8513C28.2956 28.8919 28.1555 28.9043 28.0173 28.8876C24.4862 28.4348 21.2064 26.8194 18.6951 24.2962C16.1838 21.7729 14.584 18.4855 14.148 14.9523C14.133 14.8142 14.1462 14.6745 14.1867 14.5416C14.2272 14.4087 14.2942 14.2854 14.3837 14.1792C14.4721 14.0786 14.5808 13.998 14.7028 13.9427C14.8247 13.8874 14.957 13.8588 15.0909 13.8586H17.9194C18.1387 13.8537 18.3528 13.9254 18.5248 14.0614C18.6969 14.1973 18.8162 14.389 18.8622 14.6034C18.9 14.8612 18.9471 15.1157 19.0037 15.3671C19.1126 15.8642 19.2575 16.3526 19.4374 16.8286L18.1174 17.4414C18.0045 17.4932 17.903 17.5668 17.8187 17.6579C17.7343 17.749 17.6688 17.8559 17.6259 17.9724C17.5829 18.0889 17.5634 18.2128 17.5685 18.3368C17.5736 18.4609 17.6031 18.5828 17.6554 18.6954C19.0123 21.602 21.3488 23.9384 24.2553 25.2953C24.4849 25.3896 24.7423 25.3896 24.9719 25.2953C25.0895 25.2533 25.1975 25.1883 25.2898 25.1041C25.382 25.0199 25.4567 24.9183 25.5093 24.805L26.0939 23.485C26.5813 23.6594 27.0787 23.8042 27.5836 23.9188C27.835 23.9753 28.0896 24.0225 28.3473 24.0602C28.5617 24.1062 28.7534 24.2255 28.8893 24.3976C29.0253 24.5697 29.097 24.7838 29.0921 25.003L29.111 27.9447Z" fill="#00EB91"></path></svg>